<?xml version="1.0" ?><svg id="solid" viewBox="0 0 512 512" xmlns="http://www.w3.org/2000/svg"><title/><path d="M477.407,248.487l-85.664,62.24a14.323,14.323,0,0,0-5.217,16.053l32.722,100.705A44.932,44.932,0,0,1,350.1,477.72L264.44,415.481a14.322,14.322,0,0,0-16.88,0L161.9,477.72a44.265,44.265,0,0,1-52.821,0,44.263,44.263,0,0,1-16.323-50.235L125.473,326.78a14.322,14.322,0,0,0-5.216-16.053l-85.664-62.24A44.931,44.931,0,0,1,61,167.205H166.89a14.323,14.323,0,0,0,13.656-9.923l32.721-100.7a44.932,44.932,0,0,1,85.465,0l32.722,100.7a14.324,14.324,0,0,0,13.656,9.922H451a44.931,44.931,0,0,1,26.41,81.282Z" style="fill:#3b3b3b"/></svg>