<?xml version="1.0" encoding="utf-8"?>
<!-- Generator: Adobe Illustrator 25.4.1, SVG Export Plug-In . SVG Version: 6.00 Build 0)  -->
<svg version="1.0" id="레이어_1" xmlns="http://www.w3.org/2000/svg" xmlns:xlink="http://www.w3.org/1999/xlink" x="0px"
	 y="0px" viewBox="0 0 226.8 91.6" enable-background="new 0 0 226.8 91.6" xml:space="preserve">
<g>
	<rect x="58.3" y="14.9" fill="#3A68F8" width="42.5" height="61.8"/>
	<rect x="125.9" y="14.9" fill="#0149DA" width="42.5" height="61.8"/>
	<path fill="#24DFA5" d="M79.6,14.9C71.2,5.7,59.2,0,45.8,0C20.5,0,0,20.5,0,45.8s20.5,45.8,45.8,45.8c13.4,0,25.4-5.7,33.8-14.9
		c-7.5-8.2-12-19-12-30.9S72.1,23,79.6,14.9z"/>
	<path fill="none" d="M135.2,46.1v-0.6c0,0.1,0,0.2,0,0.3S135.2,46,135.2,46.1z"/>
	<path fill="#2C5BF0" d="M181,0c-13.4,0-25.4,5.7-33.8,14.9c7.5,8.2,12,19,12,30.9s-4.6,22.8-12,30.9c8.4,9.1,20.4,14.9,33.8,14.9
		c25.3,0,45.8-20.5,45.8-45.8S206.3,0,181,0z"/>
	<path fill="#438AFF" d="M135.2,45.8c0-0.1,0-0.2,0-0.3c0.1-11.8,4.6-22.6,12-30.6C138.8,5.7,126.8,0,113.4,0S88,5.7,79.6,14.9
		c7.5,8.2,12,19,12,30.9s-4.6,22.8-12,30.9c8.4,9.1,20.4,14.9,33.8,14.9s25.4-5.7,33.8-14.9c-7.4-8.1-11.9-18.8-12-30.6
		C135.2,46,135.2,45.9,135.2,45.8z"/>
</g>
</svg>
